# xmcd CD database file
# Copyright (C) 1993-2000  Ti Kan
#
# Track frame offsets:
#	150
#	12299
#	27380
#	41453
#	56806
#	71031
#	86716
#	100101
#	115848
#	128553
#	143125
#	156025
#	168614
#	181969
#	193394
#	207886
#	219799
#	234798
#	249034
#
# Disc length: 3511 seconds
#
# Revision: 1
# Processed by: cddbd v1.4PL0 Copyright (c) Steve Scherf et al.
# Submitted via: xmcd 2.6 PL0
#
DISCID=fe0db513
DTITLE=Tampa Red - It Hurts Me Too
DYEAR=1900
DGENRE=
TTITLE0=(Honey) It's Tight Like That
TTITLE1=You Got To Reap What You Show
TTITLE2=New Strangers Blues
TTITLE3=Turpentine Blues
TTITLE4=Kingfish Blues
TTITLE5=Black Angel Blues
TTITLE6=Denver Blues
TTITLE7=Sugar Mama Blues Number 1
TTITLE8=Mean Mistreater Blues
TTITLE9=My Gal Is Gone
TTITLE10=Rock It In Rhythm
TTITLE11=Bessemer Blues
TTITLE12=Don't You Lie To Me
TTITLE13=It Hurts Me Too
TTITLE14=Noonday Hour Blues
TTITLE15=Let Me Play Your Poodle
TTITLE16=She Want To Sell My Monkey
TTITLE17=Lula Mae
TTITLE18=Crying Won't Help You
EXTD=
EXTT0=
EXTT1=
EXTT2=
EXTT3=
EXTT4=
EXTT5=
EXTT6=
EXTT7=
EXTT8=
EXTT9=
EXTT10=
EXTT11=
EXTT12=
EXTT13=
EXTT14=
EXTT15=
EXTT16=
EXTT17=
EXTT18=
PLAYORDER=
